<svg xmlns="http://www.w3.org/2000/svg" viewBox="0 0 505.55 505.55">
  <defs>
    <style>
      .cls-1 {
        fill: #fff;
      }

      .cls-2 {
        fill: #9a8244;
      }

      .cls-3 {
        fill: #23356e;
      }
    </style>
  </defs>
  <g id="Layer_2" data-name="Layer 2">
    <g id="Layer_1-2" data-name="Layer 1">
      <g>
        <circle class="cls-1" cx="252.78" cy="252.77" r="252.77"/>
        <g>
          <path class="cls-2" d="M505.49,247.46c2.76,140-108.1,255.79-248.78,258A252.75,252.75,0,1,1,249.3.05C388.12-1.9,502.34,108.11,505.49,247.46Zm-10.34.28c-3.07-134-113.09-239.83-246.92-237.31a242.39,242.39,0,1,0,9.2,484.7C391.63,492.56,498,381.68,495.15,247.74Z"/>
          <path class="cls-2" d="M146.18,450.93a10.58,10.58,0,1,1,10.35-10.76A10.54,10.54,0,0,1,146.18,450.93Z"/>
          <path class="cls-2" d="M358.85,450.93a10.58,10.58,0,1,1,10.38-10.74A10.54,10.54,0,0,1,358.85,450.93Z"/>
        </g>
        <g>
          <path class="cls-3" d="M256.64,437.81A185.08,185.08,0,1,1,437.8,249.62,184.9,184.9,0,0,1,256.64,437.81Zm47.56-96.17a2.5,2.5,0,0,0,.13.45,55.34,55.34,0,0,1,6.13,22.65c.05.89.43.91,1.1.8,2-.32,3.95-.54,5.9-.93,23.62-4.72,41.4-26.69,41.05-50.78-.16-11.5-.47-23-.68-34.47a1.81,1.81,0,0,0-1.11-1.79Q332,264.19,307.33,250.73a1.17,1.17,0,0,0-1.4.07q-24,14.43-48.1,28.81a1.77,1.77,0,0,0-1.12,1.77q.65,28.62,1.2,57.25c0,.92.28,1.17,1.2,1.31,13.23,2,23.08,12.55,23.9,25.5a27.76,27.76,0,1,1-32.78-25.27c1.17-.24,1.31-.68,1.28-1.68q-.62-28.33-1.17-56.67a2.12,2.12,0,0,0-1.31-2.11q-24.6-13.31-49.14-26.7a1.27,1.27,0,0,0-1.52.08q-23.93,14.34-47.87,28.63a2.22,2.22,0,0,0-1.29,2.28c.28,11.1.48,22.2.73,33.3a49.59,49.59,0,0,0,7.71,26c9.64,15.12,23.53,23.23,41.38,24.63,1.06.08,1.05-.36,1.07-1.14A56.07,56.07,0,0,1,205,344.84c.17-.36.54-.7.32-1.21l-.73,0a27.62,27.62,0,0,1-27.16-27c-.14-5.45-.22-10.9-.37-16.35a1.65,1.65,0,0,1,.88-1.64q10.49-6.72,20.93-13.52a1.61,1.61,0,0,1,2,0q10.65,6.31,21.36,12.55a1.9,1.9,0,0,1,1.06,1.83c.14,8.47.3,16.94.54,25.41a3,3,0,0,1-1.26,2.67c-15.18,13.16-21.5,29.79-18,49.53A51.68,51.68,0,0,0,306.47,360c-2.1-14.13-9.05-25.52-20.49-34.12a2,2,0,0,1-.9-1.81q-.24-12.93-.54-25.86a1.82,1.82,0,0,1,1-1.87q10.44-6.68,20.81-13.44a1.61,1.61,0,0,1,2-.06q10.71,6.36,21.48,12.62a1.76,1.76,0,0,1,1,1.74c.09,5.51.23,11,.32,16.51a25.56,25.56,0,0,1-2.28,11.2C324,335.32,315.64,340.65,304.2,341.64Zm-54-210.78a6.78,6.78,0,0,0-.37-1.44,11.9,11.9,0,0,0-11.68-8.31c-13.38.28-26.77.62-40.16.8-3.63,0-5.8,1.82-7.22,4.88a15,15,0,0,0-1.26,6.53c0,1-.34,1.3-1.35,1.31-5.06.06-10.12.2-15.19.29a17.82,17.82,0,0,0-7.6,1.76,8.67,8.67,0,0,0-5.33,8.6c.15,6,.25,12,.39,18,0,.34-.17.76.25,1.09A22.82,22.82,0,0,1,180.65,160a121.25,121.25,0,0,1,22.1,5.64,13.41,13.41,0,0,1,7.33,6.73,22,22,0,0,1,2.27,8.82c.05.74-.28,1-.82,1.33-3.22,1.9-6.41,3.85-9.63,5.74a1.48,1.48,0,0,0-.88,1.48q.64,28.56,1.2,57.11a1.48,1.48,0,0,0,.9,1.46q24.84,13.47,49.65,27a1.06,1.06,0,0,0,1.27,0q24.16-14.5,48.36-29a1.58,1.58,0,0,0,.93-1.59q-.63-28.48-1.19-57a1.58,1.58,0,0,0-1-1.57c-2.41-1.26-4.78-2.59-7.17-3.88-3.9-2.12-4-2.13-3.2-6.54,1.07-6,3.95-10.48,10-12.75a144,144,0,0,1,22.09-6.27,22.57,22.57,0,0,1,17.94,3.45c.21.15.4.46.78.25-.13-6.6-.22-13.23-.44-19.84a7.76,7.76,0,0,0-3.39-6.18,13.8,13.8,0,0,0-7.75-2.62c-5.55-.24-11.1.16-16.65.2-2.34,0-1.91.39-2.14-2a13.77,13.77,0,0,0-2.58-7.46,6.7,6.7,0,0,0-5.77-2.81q-20.52.49-41,.84a10.37,10.37,0,0,0-6.55,2.34A12.9,12.9,0,0,0,250.23,130.86ZM309.72,216c.2,9.45.41,18.89.58,28.33a1.78,1.78,0,0,0,1.09,1.8q24.72,13.38,49.39,26.83a1.16,1.16,0,0,0,1.4,0q24-14.43,48.11-28.79a2,2,0,0,0,1.11-2.07q-.61-28.12-1.16-56.23a2.11,2.11,0,0,0-1.3-2.12Q384.36,170.44,359.8,157a1.29,1.29,0,0,0-1.52.05q-24,14.4-48,28.72a2.1,2.1,0,0,0-1.18,2.18C309.35,197.34,309.53,206.68,309.72,216ZM93.56,220.55c.19,9.44.4,18.89.57,28.33a1.79,1.79,0,0,0,1.09,1.8q24.72,13.38,49.39,26.83a1.16,1.16,0,0,0,1.4,0q24-14.43,48.11-28.79a2,2,0,0,0,1.12-2.08q-.63-28.11-1.17-56.22a2.11,2.11,0,0,0-1.29-2.12q-24.6-13.31-49.15-26.7a1.26,1.26,0,0,0-1.51.05q-24,14.38-48,28.72a2.12,2.12,0,0,0-1.19,2.18C93.18,201.85,93.36,211.2,93.56,220.55Z"/>
          <path class="cls-3" d="M275.94,221.72a24,24,0,0,1-23.71,25.06c-10.6.11-20.49-7.88-22.92-18.41A23.64,23.64,0,0,1,231,212.52c5.75-12.28,11.42-24.59,17.14-36.89A12.36,12.36,0,0,1,250.3,172c.64-.67,1.15-.72,1.84-.07a11.6,11.6,0,0,1,2.17,3.26q9.49,18.39,19,36.78A23.18,23.18,0,0,1,275.94,221.72Z"/>
          <path class="cls-3" d="M383.34,214.45c.07,3.7.12,7.4.25,11.1a1.85,1.85,0,0,1-1,1.88q-10.44,6.66-20.81,13.43a1.59,1.59,0,0,1-2,.07q-10.71-6.35-21.48-12.62a1.75,1.75,0,0,1-1-1.74q-.19-11.1-.47-22.19a1.76,1.76,0,0,1,.91-1.77q10.5-6.71,20.93-13.51a1.59,1.59,0,0,1,2,0q10.65,6.31,21.36,12.54a1.87,1.87,0,0,1,1,1.85C383.16,207.15,383.26,210.8,383.34,214.45Z"/>
          <path class="cls-3" d="M121,219.86c-.07-3.66-.13-7.31-.24-11a1.74,1.74,0,0,1,.9-1.77q10.49-6.7,20.93-13.51a1.61,1.61,0,0,1,2,0q10.65,6.31,21.35,12.55a1.86,1.86,0,0,1,1,1.84q.18,11,.47,22.05a2,2,0,0,1-1.09,2q-10.32,6.58-20.57,13.27a1.77,1.77,0,0,1-2.21.09q-10.58-6.3-21.23-12.47a2,2,0,0,1-1.11-2C121.2,227.25,121.09,223.56,121,219.86Z"/>
        </g>
        <g>
          <path class="cls-3" d="M88.5,409.59l3.82-4,11.56,10.92,4.43-4.69-10.6-10,3.54-3.73,10.6,10,5.07-5.36-11.8-11.16,3.82-4,16.61,15.7-20.68,21.88Z"/>
          <path class="cls-3" d="M70.16,387.27a9.78,9.78,0,0,1-1.69-3.3,8.66,8.66,0,0,1-.26-3.3,7.82,7.82,0,0,1,1-3,8.47,8.47,0,0,1,2.2-2.44,9.08,9.08,0,0,1,4.33-1.9,7,7,0,0,1,4.56,1.12l.06-.06a5.2,5.2,0,0,1-.4-2.23,5.79,5.79,0,0,1,.52-2,7.65,7.65,0,0,1,1.21-1.85,17.81,17.81,0,0,1,1.62-1.63l1.29-1.09c.5-.41,1-.85,1.49-1.32a13.47,13.47,0,0,0,1.32-1.43,4.19,4.19,0,0,0,.8-1.49l4,5.27A11.77,11.77,0,0,1,90,369.19c-1,.87-1.93,1.73-2.79,2.6A6,6,0,0,0,85.27,375a5,5,0,0,0,1.3,3.51l4,5.27,9.36-7.13,4,5.27L80,400.19Zm12.27-6.37a5,5,0,0,0-2.87-2.11,4.23,4.23,0,0,0-3.31,1.09,4,4,0,0,0-1.84,2.84A5.07,5.07,0,0,0,75.69,386l4.39,5.77,6.75-5.14Z"/>
          <path class="cls-3" d="M56,353.81,63,367l-4.91,2.62L47,348.64l4.61-2.45,24.64,5.18-7.78-14.63,4.91-2.61,11.92,22.41L80.66,359Z"/>
          <path class="cls-3" d="M33.4,337.09,38,335.27l2.11,5.29-4.59,1.82Zm7.54-3.5,28-11.13,2.45,6.16-28,11.12Z"/>
          <path class="cls-3" d="M35.1,316.39l16.34-17.3,0-.08-19.53,5.14-1.58-6,29.12-7.67,1.68,6.41L44.8,314.14l0,.08,19.49-5.13,1.58,6-29.12,7.66Z"/>
          <path class="cls-3" d="M34.29,264.06a7.15,7.15,0,0,0-1.54,1.61,7,7,0,0,0-1.15,4.45,7.72,7.72,0,0,0,1.17,3.72,7.21,7.21,0,0,0,2.52,2.33,10.21,10.21,0,0,0,3.42,1.13,16,16,0,0,0,3.86.13,15.28,15.28,0,0,0,3.64-.74,10.06,10.06,0,0,0,3.1-1.67,7.33,7.33,0,0,0,2.08-2.71,7.66,7.66,0,0,0,.55-3.86,6.11,6.11,0,0,0-2.24-4.58,8.54,8.54,0,0,0-5-1.67l-.53-6.39a15.35,15.35,0,0,1,5.19.88,12.25,12.25,0,0,1,4.1,2.46A11.89,11.89,0,0,1,56.19,263a15,15,0,0,1,1.26,5,15.38,15.38,0,0,1-.69,6.3,13.27,13.27,0,0,1-2.92,4.91,14.51,14.51,0,0,1-4.7,3.31,18.06,18.06,0,0,1-6,1.51,19,19,0,0,1-6.32-.49,15.13,15.13,0,0,1-5.26-2.49,13.37,13.37,0,0,1-3.75-4.37,15.28,15.28,0,0,1-1.73-6.1,15.49,15.49,0,0,1,.33-4.74,12.7,12.7,0,0,1,1.76-4.13,11.21,11.21,0,0,1,3.14-3.15,12.18,12.18,0,0,1,4.51-1.81l.52,6.39A5.54,5.54,0,0,0,34.29,264.06Z"/>
          <path class="cls-3" d="M27.24,229.53l31-8.57-.61,6.85-6.88,1.68-1,11.21,6.47,2.94-.59,6.64-29-14Zm18.44,1.25-11.34,2.81v.08L45,238.55Z"/>
          <path class="cls-3" d="M32,201.28l22.74-7,0-.08L35.17,189l1.58-6,29.12,7.67-1.69,6.4-22.68,7,0,.08L61,209.31l-1.58,6-29.11-7.67Z"/>
          <path class="cls-3" d="M54,143.88a18.6,18.6,0,0,1,2.18-3.29,8.57,8.57,0,0,1,2.53-2.09,5.8,5.8,0,0,1,3-.64,8.08,8.08,0,0,1,3.45,1,6.65,6.65,0,0,1,2.86,2.7,7.57,7.57,0,0,1,.76,3.87,7.25,7.25,0,0,1,4.43-2.34,9.17,9.17,0,0,1,8,3.7,7.77,7.77,0,0,1,1.28,3.39,10.38,10.38,0,0,1-.24,3.74,15,15,0,0,1-1.41,3.72l-6.87,12.87L47.33,156.37Zm10.35,6.49a4.76,4.76,0,0,0,.63-3,3.21,3.21,0,0,0-1.89-2.3,3.47,3.47,0,0,0-1.7-.48,2.92,2.92,0,0,0-1.4.4,4.31,4.31,0,0,0-1.16,1,10.46,10.46,0,0,0-.93,1.44L55,153l6.21,3.32Zm11.45,5.68a9.42,9.42,0,0,0,.71-1.73,4.62,4.62,0,0,0,.17-1.67,3.23,3.23,0,0,0-.55-1.52,4.18,4.18,0,0,0-1.52-1.26,3.89,3.89,0,0,0-3.54-.41,5.59,5.59,0,0,0-2.5,2.58l-3.4,6.36,7.29,3.9Z"/>
          <path class="cls-3" d="M61.74,116l4,2.83-3.25,4.67-4.05-2.82Zm7.08,4.37,24.7,17.22L89.73,143,65,125.77Z"/>
          <path class="cls-3" d="M80,105.91l23.42,4.14.06-.06-15-13.49,4.14-4.62L115,112l-4.43,4.93-23.36-4.15-.06.06,15,13.47L98,130.92,75.62,110.81Z"/>
          <path class="cls-3" d="M114.68,73,142.2,89.63l-5.39,4.27-5.94-3.84-8.83,7,2.31,6.72-5.23,4.14-9.76-30.68Zm11.77,14.25L116.61,81l-.06.05,3.78,11.09Z"/>
          <path class="cls-3" d="M137.8,57.46,150,78.78l12.75-7.28,2.75,4.84L147,86.89,132.05,60.74Z"/>
          <path class="cls-3" d="M160.73,36.61l2,4.52-5.21,2.29-2-4.52ZM164.5,44l12.14,27.55-6.07,2.67L158.44,46.69Z"/>
          <path class="cls-3" d="M185.57,35.86l7.22-1.75,9.64,9.9,4-13.21,7.17-1.73-6.49,20.66L209.84,61l-6.43,1.56-2.76-11.39Z"/>
          <path class="cls-3" d="M228.1,27.43l3.74,29.87-6.56.83-3.75-29.88Z"/>
          <path class="cls-3" d="M245.45,26.18l.5,24.54,14.67-.29.11,5.56-21.29.43-.61-30.1Z"/>
          <path class="cls-3" d="M284.46,28.29A15.64,15.64,0,0,1,289.7,30a11.88,11.88,0,0,1,3.91,3.36,12.68,12.68,0,0,1,2.2,5,18.58,18.58,0,0,1,.12,6.62,20.58,20.58,0,0,1-1.68,5.9,13.1,13.1,0,0,1-3.19,4.4,11.93,11.93,0,0,1-4.66,2.57,14.4,14.4,0,0,1-6.11.31l-12.87-1.8,4.18-29.82ZM280.6,52.54a8.61,8.61,0,0,0,2.82-.08,6.21,6.21,0,0,0,2.6-1.19,7.83,7.83,0,0,0,2.06-2.54,12.52,12.52,0,0,0,1.21-4.09,17.78,17.78,0,0,0,.13-4.14,8.29,8.29,0,0,0-1-3.31A6.44,6.44,0,0,0,286,34.84a10.48,10.48,0,0,0-4-1.26l-4.68-.66-2.62,18.8Z"/>
          <path class="cls-3" d="M314.54,34.63l-7.8,29.08L300.35,62l7.79-29.08Z"/>
          <path class="cls-3" d="M340.66,43.78a9.59,9.59,0,0,1,3.14,2,8.58,8.58,0,0,1,1.92,2.7,7.74,7.74,0,0,1,.66,3.1,8.4,8.4,0,0,1-.63,3.23A9.05,9.05,0,0,1,343,58.62,7.08,7.08,0,0,1,338.52,60l0,.07a5.19,5.19,0,0,1,1.5,1.71,5.84,5.84,0,0,1,.6,2A7.53,7.53,0,0,1,340.5,66a18.15,18.15,0,0,1-.55,2.23c-.15.46-.34,1-.55,1.6s-.42,1.24-.6,1.89a12.52,12.52,0,0,0-.4,1.91,4.28,4.28,0,0,0,.08,1.69l-6.15-2.46a11.52,11.52,0,0,1,.64-3.42c.41-1.26.77-2.48,1.06-3.67a6,6,0,0,0,0-3.74,4.88,4.88,0,0,0-2.92-2.35l-6.15-2.46-4.37,10.92L314.4,65.7l11.18-27.95ZM333.4,55.55a5.06,5.06,0,0,0,3.55.33,4.22,4.22,0,0,0,2.28-2.63,4,4,0,0,0,.13-3.38,5.06,5.06,0,0,0-2.81-2.19L329.82,45l-3.15,7.87Z"/>
          <path class="cls-3" d="M364.38,55.4,350,81.85l-5.82-3.17,14.4-26.44Z"/>
          <path class="cls-3" d="M383,67l-6.73,20.81.07.05,17.72-12.62,7.47,5.57-18,24.14-5-3.7,12.76-17.11-.07-.05L372.6,96.82l-4.09-3,6.71-21.35-.06,0L362.52,89.31l-5-3.7,18-24.14Z"/>
          <path class="cls-3" d="M414.78,136.87q-4.45-.84-8.19-5.58T403.05,122c.15-3,1.85-5.73,5.07-8.27l14.7-11.6,4.1,5.19L412.22,119a13.75,13.75,0,0,0-1.76,1.65,4.66,4.66,0,0,0-1.08,4.38,7.75,7.75,0,0,0,1.55,2.88c1.47,1.85,2.89,2.81,4.27,2.86s3-.62,4.73-2l14.7-11.6,4.1,5.2L424,133.92Q419.23,137.7,414.78,136.87Zm21.59-30.95-3.88,3L429,104.5l3.88-3Zm5.38,6.82-3.88,3.05-3.52-4.47,3.87-3Z"/>
          <path class="cls-3" d="M449.61,140l-11.84,20.64,0,.07,17.79-9.56,2.94,5.45L432,170.83,428.89,165l11.82-20.57,0-.08-17.76,9.55L420,148.44l26.51-14.26Z"/>
          <path class="cls-3" d="M465.29,173.51l-28.05,11-2.4-6.17,28-10.95Zm7.57-3.45-4.59,1.79-2.08-5.3,4.6-1.8Z"/>
          <path class="cls-3" d="M441.74,198l26.54-17.25,1.76,6.55-18.69,12,0,.08,22.21,1,1.78,6.6-31.68-1.81Z"/>
          <path class="cls-3" d="M479.54,239.15l-5.53.63-1.8-15.8-6.41.73,1.65,14.49-5.12.58-1.64-14.49-7.33.83,1.83,16.13-5.53.63-2.58-22.71,29.92-3.4Z"/>
          <path class="cls-3" d="M479.19,268.09a9.72,9.72,0,0,1-.84,3.61,8.41,8.41,0,0,1-1.93,2.69A7.8,7.8,0,0,1,473.7,276a8.71,8.71,0,0,1-3.25.45,9,9,0,0,1-4.53-1.35,7,7,0,0,1-2.77-3.78h-.09a5.06,5.06,0,0,1-1.13,2,5.62,5.62,0,0,1-1.71,1.22,7.59,7.59,0,0,1-2.12.64,19.68,19.68,0,0,1-2.28.2h-1.7c-.64,0-1.3,0-2,.05a13.19,13.19,0,0,0-1.94.24,4.34,4.34,0,0,0-1.57.62l.33-6.62a12,12,0,0,1,3.45-.5c1.32,0,2.59-.08,3.8-.19a6,6,0,0,0,3.53-1.26,4.89,4.89,0,0,0,1.27-3.52l.33-6.62L449.59,257l.33-6.62,30.07,1.5Zm-13.49-3a5,5,0,0,0,.84,3.46,4.19,4.19,0,0,0,3.23,1.31,4,4,0,0,0,3.24-1,5.07,5.07,0,0,0,1.15-3.36l.36-7.24-8.46-.42Z"/>
          <path class="cls-3" d="M453.59,290.27a4.8,4.8,0,0,0-2,1.06,6.46,6.46,0,0,0-1.4,1.88,10.19,10.19,0,0,0-.84,2.4,13.06,13.06,0,0,0-.26,1.89,6.53,6.53,0,0,0,.16,2,4.13,4.13,0,0,0,.82,1.68,2.86,2.86,0,0,0,1.71,1,2.57,2.57,0,0,0,2.1-.34,6.16,6.16,0,0,0,1.67-1.73,19.58,19.58,0,0,0,1.47-2.61c.48-1,1-2,1.51-3a27.65,27.65,0,0,1,1.71-3,11.15,11.15,0,0,1,2.15-2.46,7.35,7.35,0,0,1,2.8-1.49,7.43,7.43,0,0,1,3.61,0,8,8,0,0,1,3.73,1.82,9.15,9.15,0,0,1,2.23,3.14,11.45,11.45,0,0,1,.88,3.9,15.39,15.39,0,0,1-.32,4.08,19.63,19.63,0,0,1-1.47,4.32,11.38,11.38,0,0,1-2.49,3.41,8.74,8.74,0,0,1-3.51,2,9.33,9.33,0,0,1-4.56,0l1.35-6.26a5.43,5.43,0,0,0,2.31-.09,3.67,3.67,0,0,0,1.63-1,5.46,5.46,0,0,0,1.09-1.64,10.73,10.73,0,0,0,.68-2.16,7.14,7.14,0,0,0,.18-1.6,4.39,4.39,0,0,0-.27-1.55,3.56,3.56,0,0,0-.8-1.27,2.78,2.78,0,0,0-1.48-.75,2.68,2.68,0,0,0-1.47,0,3,3,0,0,0-1.27,1.09,16.86,16.86,0,0,0-1.49,2.48c-.55,1.07-1.25,2.48-2.12,4.22-.23.52-.59,1.25-1.09,2.16a11.44,11.44,0,0,1-2,2.6,8.91,8.91,0,0,1-3.08,1.95,7.35,7.35,0,0,1-4.28.17A9.21,9.21,0,0,1,447.6,307a8.39,8.39,0,0,1-2.48-3,11.41,11.41,0,0,1-1.13-4.25,18.25,18.25,0,0,1,.45-5.45,19,19,0,0,1,1.62-4.59,12.15,12.15,0,0,1,2.74-3.64,9.51,9.51,0,0,1,3.86-2.07,9.87,9.87,0,0,1,4.92,0l-1.36,6.27A5.56,5.56,0,0,0,453.59,290.27Z"/>
          <path class="cls-3" d="M466.83,328l-28.55-9.59,2.11-6.28,28.54,9.59Zm8,2.2-4.68-1.57,1.81-5.39,4.68,1.57Z"/>
          <path class="cls-3" d="M459.07,333.8l5.06,2.32-10.26,22.43-5.07-2.32,3.76-8.21-22.31-10.21,2.75-6L455.32,342Z"/>
          <path class="cls-3" d="M436.4,386.61l-4.66-3,8.67-13.32L435,366.73,427,379l-4.31-2.81,8-12.23-6.19-4-8.85,13.61-4.67-3,12.47-19.16,25.23,16.42Z"/>
          <path class="cls-3" d="M408.55,385a4.73,4.73,0,0,0-2.24-.06,6.17,6.17,0,0,0-2.15.94,10.41,10.41,0,0,0-1.93,1.66,13.71,13.71,0,0,0-1.15,1.52,6.53,6.53,0,0,0-.85,1.79,4.25,4.25,0,0,0-.12,1.87,2.89,2.89,0,0,0,1,1.69,2.63,2.63,0,0,0,2,.75,6.32,6.32,0,0,0,2.31-.68,21,21,0,0,0,2.57-1.54c.9-.63,1.83-1.24,2.8-1.85a27.79,27.79,0,0,1,3-1.76,11.62,11.62,0,0,1,3.09-1.08,7.43,7.43,0,0,1,3.18.1,7.34,7.34,0,0,1,3.13,1.77,7.91,7.91,0,0,1,2.34,3.43,8.89,8.89,0,0,1,.39,3.83,11.37,11.37,0,0,1-1.17,3.83,15.62,15.62,0,0,1-2.3,3.38,19.39,19.39,0,0,1-3.42,3,11.33,11.33,0,0,1-3.85,1.73,8.71,8.71,0,0,1-4,0,9.21,9.21,0,0,1-4-2.24l4.28-4.77a5.31,5.31,0,0,0,2,1.07,3.7,3.7,0,0,0,1.9,0,5.59,5.59,0,0,0,1.76-.88,11.19,11.19,0,0,0,1.66-1.54,7.68,7.68,0,0,0,1-1.31,4.48,4.48,0,0,0,.53-1.47,3.65,3.65,0,0,0-.07-1.51,2.78,2.78,0,0,0-.91-1.38,2.62,2.62,0,0,0-1.29-.71,3,3,0,0,0-1.64.31,17.7,17.7,0,0,0-2.52,1.42l-3.94,2.62c-.46.34-1.13.79-2,1.33a10.86,10.86,0,0,1-3,1.27,9.13,9.13,0,0,1-3.63.17,7.41,7.41,0,0,1-3.81-2,9.21,9.21,0,0,1-2.32-3.16,8.33,8.33,0,0,1-.68-3.82,11.28,11.28,0,0,1,1.13-4.25,20.12,20.12,0,0,1,6.77-7.69,11.94,11.94,0,0,1,4.19-1.8,9.42,9.42,0,0,1,4.38.11,10,10,0,0,1,4.25,2.46l-4.28,4.77A5.48,5.48,0,0,0,408.55,385Z"/>
          <path class="cls-3" d="M401.3,424.37l-20-22.49,5-4.4,20,22.49Zm5.87,5.9-3.28-3.69,4.25-3.78,3.28,3.68Z"/>
        </g>
        <g>
          <path class="cls-3" d="M180.33,470.67a14,14,0,0,1,7.29-8.8,30.63,30.63,0,0,1,4.72-1.87l4.32-1.35a14,14,0,0,0,3.42-1.59,4.13,4.13,0,0,0,1.76-2.38c.62-2.48-.3-4.09-2.75-4.81-1.87-.48-3.29-.23-4.28.74a8.42,8.42,0,0,0-2.26,4.05l-6.63-1.8q1.31-5.82,5.33-8.34t9.53-1.09a12.94,12.94,0,0,1,7,4.43c1.7,2.15,2.13,4.86,1.31,8.12a9.54,9.54,0,0,1-1.68,3.49,10.56,10.56,0,0,1-2.6,2.32,23.45,23.45,0,0,1-3.23,1.43l-3.7,1.2a26.81,26.81,0,0,0-6.38,2.62l13.86,3.77L203.7,477Z"/>
          <path class="cls-3" d="M232.43,481.53q-6.35-.67-8.65-5.68a24.09,24.09,0,0,1,1.91-22.21q3.12-4.5,9.49-4,6.56.66,9,5.63a21.27,21.27,0,0,1,1.85,11.37,21,21,0,0,1-3.76,10.83Q239,482,232.43,481.53Zm.74-6.13a3.94,3.94,0,0,0,3-.78,4.93,4.93,0,0,0,1.69-2.3,12.18,12.18,0,0,0,.9-3.16c.12-1.1.22-2.16.31-3.18s.17-2.16.24-3.3a11.78,11.78,0,0,0-.34-3.2,5,5,0,0,0-1.28-2.53,4.39,4.39,0,0,0-2.79-1.18,4,4,0,0,0-2.77.7,5.58,5.58,0,0,0-1.73,2.28,15.32,15.32,0,0,0-.83,3.09,33.2,33.2,0,0,0-.45,3.29,30.14,30.14,0,0,0-.1,3.2,17.15,17.15,0,0,0,.27,3.26,5.73,5.73,0,0,0,1.32,2.55A3.52,3.52,0,0,0,233.17,475.4Z"/>
          <path class="cls-3" d="M272.67,481.62q-6.36.44-9.5-4.1a24.09,24.09,0,0,1-2-22.2q2.31-5,8.65-5.62,6.57-.49,9.88,4a23.4,23.4,0,0,1,2,22.2Q279.24,480.91,272.67,481.62Zm-.33-6.16a3.89,3.89,0,0,0,2.77-1.29,4.83,4.83,0,0,0,1.27-2.55,12,12,0,0,0,.33-3.26c-.06-1.11-.14-2.18-.24-3.2s-.2-2.15-.33-3.29a11.52,11.52,0,0,0-.89-3.08,5,5,0,0,0-1.7-2.28,4.46,4.46,0,0,0-2.94-.68A4,4,0,0,0,268,457a5.65,5.65,0,0,0-1.31,2.53,14.76,14.76,0,0,0-.27,3.19,32.32,32.32,0,0,0,.12,3.31,32,32,0,0,0,.45,3.18,17,17,0,0,0,.83,3.16,5.75,5.75,0,0,0,1.75,2.29A3.53,3.53,0,0,0,272.34,475.46Z"/>
          <path class="cls-3" d="M311.65,450.42a3.34,3.34,0,0,0-2.09-1.9,5.26,5.26,0,0,0-2.21.08A4.85,4.85,0,0,0,305,450a5.67,5.67,0,0,0-1.31,2.31,12.15,12.15,0,0,0,0,5.56l.08,0a6.36,6.36,0,0,1,2.23-3.36,11.9,11.9,0,0,1,3.72-1.73,9.5,9.5,0,0,1,7.56,1,10.49,10.49,0,0,1,4.63,6.36q1.4,5.43-1.16,9.15a13,13,0,0,1-7.46,5.16q-6.39,1.6-10.34-2.27a20.78,20.78,0,0,1-5.47-9.78,19.58,19.58,0,0,1,0-11.88q1.86-5.4,8.4-7.28a11.65,11.65,0,0,1,7.29.13,10.12,10.12,0,0,1,5.14,5.28Zm-5.89,14.63A4.6,4.6,0,0,0,308,468a4.31,4.31,0,0,0,3.7.48,5.09,5.09,0,0,0,3.26-2.44,4.42,4.42,0,0,0,.44-3.54,5.22,5.22,0,0,0-2.26-3.24,5,5,0,0,0-4.14-.46,4.41,4.41,0,0,0-2.88,2.39A5.25,5.25,0,0,0,305.76,465.05Z"/>
        </g>
      </g>
    </g>
  </g>
</svg>
